<svg width="199" height="43" viewBox="0 0 199 43" fill="none" xmlns="http://www.w3.org/2000/svg">
<g clip-path="url(#clip0_111_333)">
<g clip-path="url(#clip1_111_333)">
<path d="M38.5342 9.36304L29.6646 30.4086H32.8249L34.9298 25.3975H45.3105L47.3462 30.4086H50.6017L41.7897 9.36304H38.5342ZM36.0414 22.6341L40.0783 12.4607L44.1801 22.6341H36.0414Z" fill="white"/>
<path d="M66.3125 30.4389H80.0178V27.7057H69.2609V21.2668H79.5622V18.4731H69.2609V12.1567H80.0178V9.36304H66.3125V30.4389Z" fill="white"/>
<path d="M60.9953 6.62988H60.4792C60.4306 7.5536 60.0396 8.42614 59.3823 9.07741C58.725 9.72867 57.8485 10.112 56.9238 10.1526V10.6684C58.899 10.7592 60.3566 12.2778 60.4792 14.2516H60.9953C61.0315 13.318 61.4168 12.4319 62.0751 11.7684C62.7334 11.105 63.6168 10.7124 64.5507 10.6684V10.1829C63.6248 10.1305 62.7506 9.7394 62.0948 9.08409C61.4391 8.42878 61.0477 7.55515 60.9953 6.62988Z" fill="white"/>
<path d="M62.1502 15.1943H59.2941V30.409H62.1502V15.1943Z" fill="white"/>
<path d="M55.1908 9.36304H52.3044V30.4086H55.1908V9.36304Z" fill="white"/>
<path d="M134.079 14.8596C129.466 14.8596 126.239 18.2613 126.239 22.8459C126.239 27.5227 129.613 30.8941 134.2 30.8941C136.845 30.8941 139.094 29.8611 140.46 27.9175L138.455 26.2173C137.953 26.8634 137.307 27.3836 136.568 27.7368C135.83 28.0899 135.019 28.2662 134.2 28.2517C131.588 28.2517 129.46 26.4291 129.154 23.9395H141.461C141.532 23.5183 141.563 23.0913 141.552 22.6644C141.555 18.2916 138.455 14.8596 134.079 14.8596ZM129.157 21.48C129.46 19.0509 131.375 17.4718 134.079 17.4718C136.572 17.4718 138.334 19.0566 138.638 21.48H129.157Z" fill="white"/>
<path d="M146.783 19.2021C146.783 18.0495 148.028 17.3493 149.76 17.3493C151.461 17.3493 152.555 18.1994 153.103 19.0509L155.381 17.623C154.44 16.2874 152.738 14.8596 149.851 14.8596C146.418 14.8596 143.895 16.5295 143.895 19.3534C143.895 25.0028 152.834 22.7249 152.834 26.1568C152.834 27.5227 151.497 28.3425 149.613 28.3425C147.637 28.3425 146.297 27.1582 145.576 26.3686L143.379 28.0385C143.925 28.8295 145.685 30.8941 149.608 30.8941C153.619 30.8941 155.716 28.8295 155.716 26.0963C155.716 20.143 146.783 22.3906 146.783 19.2021Z" fill="white"/>
<path d="M160.73 19.2025C160.73 18.0498 161.976 17.3496 163.709 17.3496C165.41 17.3496 166.504 18.1997 167.051 19.0512L169.33 17.6277C168.389 16.2921 166.686 14.8643 163.8 14.8643C160.365 14.8643 157.844 16.5341 157.844 19.3581C157.844 25.0074 166.783 22.7295 166.783 26.1615C166.783 27.5273 165.445 28.3471 163.56 28.3471C161.585 28.3471 160.244 27.1628 159.523 26.3733L157.335 28.0431C157.883 28.8341 159.642 30.8988 163.565 30.8988C167.577 30.8988 169.673 28.8341 169.673 26.101C169.665 20.1433 160.73 22.3909 160.73 19.2025Z" fill="white"/>
<path d="M106.669 14.8596C102.749 14.8596 98.6165 17.2283 98.6165 23.4539V36.117H101.473V28.586C102.688 30.0138 104.633 30.8639 106.761 30.8639C111.375 30.8639 114.448 27.2187 114.448 22.8762C114.448 18.4731 111.653 14.8596 106.669 14.8596ZM106.585 28.2517C103.88 28.2517 101.419 26.3384 101.419 22.8459C101.419 19.6272 103.88 17.4718 106.585 17.4718C109.469 17.4718 111.599 19.5364 111.599 22.8459C111.592 26.0963 109.469 28.2517 106.585 28.2517Z" fill="white"/>
<path d="M119.858 17.3491V15.224H117.002V30.4387H119.858V22.634C119.858 18.8375 122.165 17.6229 125.207 17.8347V15.1332C122.41 14.9805 120.678 16.1648 119.858 17.3491Z" fill="white"/>
<path d="M97.5221 15.1943H94.0273L89.6818 20.6304L85.3969 15.1943H81.6902L87.8883 22.8464L81.6282 30.4393H85.0322L89.5607 24.8807L94.0878 30.4393H97.5826L91.3225 22.7556L97.5221 15.1943Z" fill="white"/>
</g>
</g>
<defs>
<clipPath id="clip0_111_333">
<rect width="140" height="42" fill="white" transform="translate(29.96 0.373047)"/>
</clipPath>
<clipPath id="clip1_111_333">
<rect width="140" height="29.4871" fill="white" transform="translate(29.6646 6.62939)"/>
</clipPath>
</defs>
</svg>
