<svg width="140" height="42" viewBox="0 0 140 42" fill="none" xmlns="http://www.w3.org/2000/svg">
<g clip-path="url(#clip0_682_2439)">
<mask id="mask0_682_2439" style="mask-type:luminance" maskUnits="userSpaceOnUse" x="0" y="0" width="140" height="42">
<path d="M140 0H0V42H140V0Z" fill="white"/>
</mask>
<g mask="url(#mask0_682_2439)">
<mask id="mask1_682_2439" style="mask-type:luminance" maskUnits="userSpaceOnUse" x="0" y="0" width="140" height="42">
<path d="M0 0H140V42H0V0Z" fill="white"/>
</mask>
<g mask="url(#mask1_682_2439)">
<mask id="mask2_682_2439" style="mask-type:luminance" maskUnits="userSpaceOnUse" x="-1" y="6" width="141" height="30">
<path d="M-0.294922 6.25586H139.705V35.743H-0.294922V6.25586Z" fill="white"/>
</mask>
<g mask="url(#mask2_682_2439)">
<path d="M8.57468 8.99023L-0.294922 30.0358H2.86538L4.97028 25.0247H15.351L17.3867 30.0358H20.6422L11.8302 8.99023H8.57468ZM6.08188 22.2613L10.1188 12.0879L14.2206 22.2613H6.08188Z" fill="white"/>
<path d="M31.0363 6.25684H30.5202C30.4716 7.18056 30.0806 8.0531 29.4233 8.70437C28.766 9.35563 27.8895 9.73896 26.9648 9.77956V10.2954C28.94 10.3862 30.3976 11.9048 30.5202 13.8786H31.0363C31.0725 12.945 31.4578 12.0589 32.1161 11.3954C32.7744 10.732 33.6578 10.3394 34.5917 10.2954V9.80986C33.6658 9.75746 32.7916 9.36636 32.1358 8.71105C31.4801 8.05574 31.0887 7.18211 31.0363 6.25684Z" fill="white"/>
<path d="M32.1901 14.8213H29.334V30.036H32.1901V14.8213Z" fill="white"/>
<path d="M25.2321 8.99023H22.3457V30.0358H25.2321V8.99023Z" fill="white"/>
<path d="M38.7591 28.0049H49.3191V30.1169H36.4551V7.46094H38.7591V28.0049Z" fill="#FFF8DD"/>
<path d="M63.5199 22.6288C63.5199 21.7968 63.3865 21.0181 63.1199 20.2928C62.8532 19.5675 62.4745 18.9381 61.9839 18.4048C61.4932 17.8715 60.9012 17.4501 60.2079 17.1408C59.5145 16.8315 58.7305 16.6768 57.8559 16.6768C56.9812 16.6768 56.1972 16.8315 55.5039 17.1408C54.8105 17.4501 54.2239 17.8715 53.7439 18.4048C53.2639 18.9381 52.8905 19.5675 52.6239 20.2928C52.3572 21.0181 52.2239 21.7968 52.2239 22.6288C52.2239 23.4608 52.3572 24.2395 52.6239 24.9648C52.8905 25.6901 53.2639 26.3195 53.7439 26.8528C54.2239 27.3861 54.8105 27.8075 55.5039 28.1168C56.1972 28.4261 56.9812 28.5808 57.8559 28.5808C58.7305 28.5808 59.5145 28.4261 60.2079 28.1168C60.9012 27.8075 61.4932 27.3861 61.9839 26.8528C62.4745 26.3195 62.8532 25.6901 63.1199 24.9648C63.3865 24.2395 63.5199 23.4608 63.5199 22.6288ZM65.8239 22.6288C65.8239 23.7595 65.6265 24.8048 65.2319 25.7648C64.8372 26.7248 64.2879 27.5568 63.5839 28.2608C62.8799 28.9648 62.0425 29.5141 61.0719 29.9088C60.1012 30.3035 59.0292 30.5008 57.8559 30.5008C56.7039 30.5008 55.6425 30.3035 54.6719 29.9088C53.7012 29.5141 52.8639 28.9648 52.1599 28.2608C51.4559 27.5568 50.9065 26.7248 50.5119 25.7648C50.1172 24.8048 49.9199 23.7595 49.9199 22.6288C49.9199 21.4981 50.1172 20.4528 50.5119 19.4928C50.9065 18.5328 51.4559 17.7008 52.1599 16.9968C52.8639 16.2928 53.7012 15.7435 54.6719 15.3488C55.6425 14.9541 56.7039 14.7568 57.8559 14.7568C59.0292 14.7568 60.1012 14.9541 61.0719 15.3488C62.0425 15.7435 62.8799 16.2928 63.5839 16.9968C64.2879 17.7008 64.8372 18.5328 65.2319 19.4928C65.6265 20.4528 65.8239 21.4981 65.8239 22.6288Z" fill="#FFF8DD"/>
<path d="M77.1741 22.6608C76.6411 22.6608 75.9741 22.6875 75.1741 22.7408C74.3741 22.7941 73.6061 22.9221 72.8701 23.1248C72.1341 23.3275 71.5051 23.6421 70.9821 24.0688C70.4601 24.4955 70.1981 25.0821 70.1981 25.8288C70.1981 26.3195 70.3001 26.7408 70.5021 27.0928C70.7051 27.4448 70.9771 27.7328 71.3181 27.9568C71.6601 28.1808 72.0381 28.3408 72.4541 28.4368C72.8701 28.5328 73.2921 28.5808 73.7181 28.5808C74.4861 28.5808 75.1531 28.4528 75.7181 28.1968C76.2841 27.9408 76.7581 27.5941 77.1421 27.1568C77.5261 26.7195 77.8091 26.2075 77.9901 25.6208C78.1721 25.0341 78.2621 24.4101 78.2621 23.7488V22.6608H77.1741ZM78.2621 20.9328V20.5488C78.2621 17.9675 76.9821 16.6768 74.4221 16.6768C72.6731 16.6768 71.1481 17.2635 69.8465 18.4368L68.5665 16.9328C69.9745 15.4821 72.0861 14.7568 74.9021 14.7568C75.6281 14.7568 76.3261 14.8635 76.9981 15.0768C77.6701 15.2901 78.2521 15.6155 78.7421 16.0528C79.2331 16.4901 79.6281 17.0395 79.9261 17.7008C80.2251 18.3621 80.3741 19.1515 80.3741 20.0688V26.7568C80.3741 27.3328 80.4011 27.9355 80.4541 28.5648C80.5081 29.1941 80.5661 29.7115 80.6301 30.1168H78.5821C78.5181 29.7541 78.4701 29.3595 78.4381 28.9328C78.4061 28.5061 78.3901 28.0901 78.3901 27.6848H78.3261C77.7081 28.6875 76.9771 29.4075 76.1341 29.8448C75.2921 30.2821 74.2621 30.5008 73.0461 30.5008C72.3851 30.5008 71.7451 30.4101 71.1261 30.2288C70.5081 30.0475 69.9585 29.7701 69.4785 29.3968C68.9985 29.0235 68.6145 28.5648 68.3265 28.0208C68.0385 27.4768 67.8945 26.8421 67.8945 26.1168C67.8945 24.9008 68.2091 23.9461 68.8385 23.2528C69.4678 22.5595 70.2571 22.0421 71.2061 21.7008C72.1561 21.3595 73.1691 21.1461 74.2461 21.0608C75.3241 20.9755 76.3101 20.9328 77.2061 20.9328H78.2621Z" fill="#FFF8DD"/>
<path d="M85.5501 22.6288C85.5501 23.4608 85.6841 24.2395 85.9501 24.9648C86.2171 25.6901 86.5961 26.3195 87.0861 26.8528C87.5771 27.3861 88.1691 27.8075 88.8621 28.1168C89.5561 28.4261 90.3401 28.5808 91.2141 28.5808C92.0681 28.5808 92.8621 28.4261 93.5981 28.1168C94.3341 27.8075 94.9691 27.3861 95.5021 26.8528C96.0361 26.3195 96.4521 25.6901 96.7501 24.9648C97.0491 24.2395 97.1981 23.4608 97.1981 22.6288C97.1981 21.7968 97.0491 21.0181 96.7501 20.2928C96.4521 19.5675 96.0361 18.9381 95.5021 18.4048C94.9691 17.8715 94.3341 17.4501 93.5981 17.1408C92.8621 16.8315 92.0681 16.6768 91.2141 16.6768C90.3401 16.6768 89.5561 16.8315 88.8621 17.1408C88.1691 17.4501 87.5771 17.8715 87.0861 18.4048C86.5961 18.9381 86.2171 19.5675 85.9501 20.2928C85.6841 21.0181 85.5501 21.7968 85.5501 22.6288ZM99.2141 30.1168H97.1021V27.6208H97.0381C96.6971 28.1328 96.2921 28.5701 95.8221 28.9328C95.3531 29.2955 94.8621 29.5941 94.3501 29.8288C93.8381 30.0635 93.3101 30.2341 92.7661 30.3408C92.2221 30.4475 91.7051 30.5008 91.2141 30.5008C90.0411 30.5008 88.9691 30.3035 87.9981 29.9088C87.0281 29.5141 86.1901 28.9648 85.4861 28.2608C84.7821 27.5568 84.2331 26.7248 83.8381 25.7648C83.4441 24.8048 83.2461 23.7595 83.2461 22.6288C83.2461 21.4981 83.4441 20.4528 83.8381 19.4928C84.2331 18.5328 84.7821 17.7008 85.4861 16.9968C86.1901 16.2928 87.0281 15.7435 87.9981 15.3488C88.9691 14.9541 90.0411 14.7568 91.2141 14.7568C91.7051 14.7568 92.2221 14.8101 92.7661 14.9168C93.3101 15.0235 93.8381 15.1941 94.3501 15.4288C94.8621 15.6635 95.3531 15.9621 95.8221 16.3248C96.2921 16.6875 96.6971 17.1248 97.0381 17.6368H97.1021V5.9248H99.2141V30.1168Z" fill="#FFF8DD"/>
</g>
</g>
</g>
</g>
<defs>
<clipPath id="clip0_682_2439">
<rect width="140" height="42" fill="white"/>
</clipPath>
</defs>
</svg>
