<svg width="22" height="22" viewBox="0 0 22 22" fill="none" xmlns="http://www.w3.org/2000/svg">
<path fill-rule="evenodd" clip-rule="evenodd" d="M12 1.25C12 0.835786 11.6642 0.5 11.25 0.5C10.8358 0.5 10.5 0.835786 10.5 1.25V10.25H1.5C1.08579 10.25 0.75 10.5858 0.75 11C0.75 11.4142 1.08579 11.75 1.5 11.75H10.5V20.75C10.5 21.1642 10.8358 21.5 11.25 21.5C11.6642 21.5 12 21.1642 12 20.75V11.75H21C21.4142 11.75 21.75 11.4142 21.75 11C21.75 10.5858 21.4142 10.25 21 10.25H12V1.25Z" fill="#222222"/>
</svg>
