<svg width="25" height="25" viewBox="0 0 25 25" fill="none" xmlns="http://www.w3.org/2000/svg">
<mask id="path-1-inside-1_1_7877" fill="white">
<path d="M7.82411 18.9324C7.64873 19.1537 7.68514 19.4767 7.91651 19.6385C9.41819 20.689 11.2221 21.232 13.063 21.1795C15.0747 21.122 17.0017 20.357 18.505 19.019C20.0083 17.6811 20.9917 15.8558 21.2821 13.8643C21.5725 11.8729 21.1513 9.84283 20.0927 8.13126C19.034 6.41968 17.4057 5.13624 15.4942 4.50671C13.5827 3.87718 11.5104 3.94188 9.64192 4.68943C7.7734 5.43698 6.22834 6.81949 5.27854 8.59377C4.40938 10.2174 4.08963 12.0739 4.3589 13.8867C4.40039 14.166 4.67309 14.3428 4.94941 14.2847C5.22573 14.2266 5.40081 13.9556 5.36159 13.676C5.14043 12.0992 5.42443 10.4878 6.18001 9.07635C7.01626 7.51419 8.3766 6.29696 10.0217 5.63878C11.6669 4.9806 13.4914 4.92364 15.1744 5.47791C16.8574 6.03218 18.291 7.16218 19.2231 8.66913C20.1551 10.1761 20.5259 11.9634 20.2703 13.7168C20.0146 15.4702 19.1488 17.0772 17.8252 18.2552C16.5016 19.4333 14.805 20.1068 13.0338 20.1574C11.4335 20.2031 9.86487 19.7376 8.55282 18.8355C8.32014 18.6755 7.99949 18.7112 7.82411 18.9324Z"/>
</mask>
<path d="M7.82411 18.9324C7.64873 19.1537 7.68514 19.4767 7.91651 19.6385C9.41819 20.689 11.2221 21.232 13.063 21.1795C15.0747 21.122 17.0017 20.357 18.505 19.019C20.0083 17.6811 20.9917 15.8558 21.2821 13.8643C21.5725 11.8729 21.1513 9.84283 20.0927 8.13126C19.034 6.41968 17.4057 5.13624 15.4942 4.50671C13.5827 3.87718 11.5104 3.94188 9.64192 4.68943C7.7734 5.43698 6.22834 6.81949 5.27854 8.59377C4.40938 10.2174 4.08963 12.0739 4.3589 13.8867C4.40039 14.166 4.67309 14.3428 4.94941 14.2847C5.22573 14.2266 5.40081 13.9556 5.36159 13.676C5.14043 12.0992 5.42443 10.4878 6.18001 9.07635C7.01626 7.51419 8.3766 6.29696 10.0217 5.63878C11.6669 4.9806 13.4914 4.92364 15.1744 5.47791C16.8574 6.03218 18.291 7.16218 19.2231 8.66913C20.1551 10.1761 20.5259 11.9634 20.2703 13.7168C20.0146 15.4702 19.1488 17.0772 17.8252 18.2552C16.5016 19.4333 14.805 20.1068 13.0338 20.1574C11.4335 20.2031 9.86487 19.7376 8.55282 18.8355C8.32014 18.6755 7.99949 18.7112 7.82411 18.9324Z" fill="#1D1D1D" stroke="#1D1D1D" stroke-width="2" stroke-linejoin="round" mask="url(#path-1-inside-1_1_7877)"/>
<path d="M1.87573 11.5969L4.10673 13.9501C4.48671 14.3509 5.11965 14.3677 5.52044 13.9878L7.8736 11.7568" stroke="#1D1D1D" stroke-linecap="round"/>
<path d="M12.8428 9.14014V12.8725C12.8428 13.0397 12.9263 13.1958 13.0654 13.2886L15.8428 15.1401" stroke="#1D1D1D" stroke-linecap="round"/>
</svg>
