<svg width="26" height="20" viewBox="0 0 26 20" fill="none" xmlns="http://www.w3.org/2000/svg">
<path d="M20.16 15.569C22.8551 15.3015 24.96 13.0276 24.96 10.262C24.96 7.05408 22.0133 4.53093 18.8622 4.98309C18.858 4.9837 18.8537 4.98151 18.8518 4.97766C17.6471 2.57663 15.1626 0.928711 12.2933 0.928711C8.47103 0.928711 5.33176 3.85298 4.99068 7.58631C4.99021 7.59148 4.98582 7.59547 4.98063 7.59546C2.79347 7.59255 0.959961 9.40076 0.959961 11.5954C0.959961 13.8045 2.75082 15.5954 4.95996 15.5954H5.75996" stroke="#1D1D1D" stroke-linecap="round"/>
<path d="M9.95996 13.5293L12.6064 10.8828C12.8017 10.6876 13.1182 10.6876 13.3135 10.8829L15.9599 13.5293" stroke="#1D1D1D" stroke-linecap="round"/>
<path d="M12.96 11.7292L12.96 18.9292" stroke="#1D1D1D" stroke-linecap="round"/>
</svg>
