<svg width="32" height="32" viewBox="0 0 32 32" fill="none" xmlns="http://www.w3.org/2000/svg">
<rect width="32" height="32" rx="8" fill="#E81711"/>
<circle cx="16" cy="16" r="11.5" fill="white"/>
<path d="M15.9531 27.9062C22.4922 27.9062 27.9062 22.4805 27.9062 15.9531C27.9062 9.41406 22.4805 4 15.9414 4C9.41406 4 4 9.41406 4 15.9531C4 22.4805 9.42578 27.9062 15.9531 27.9062ZM12.0156 20.875C11.4766 20.875 11.0547 20.4414 11.0547 19.9023C11.0547 19.6445 11.1484 19.3984 11.3359 19.2227L14.582 15.9648L11.3359 12.7188C11.1484 12.5312 11.0547 12.2969 11.0547 12.0391C11.0547 11.4883 11.4766 11.0781 12.0156 11.0781C12.2852 11.0781 12.4961 11.1719 12.6836 11.3477L15.9531 14.6055L19.2461 11.3359C19.4453 11.1367 19.6562 11.0547 19.9141 11.0547C20.4531 11.0547 20.8867 11.4766 20.8867 12.0156C20.8867 12.2852 20.8047 12.4961 20.5938 12.707L17.3359 15.9648L20.582 19.2109C20.7812 19.3867 20.875 19.6328 20.875 19.9023C20.875 20.4414 20.4414 20.875 19.8906 20.875C19.6211 20.875 19.375 20.7812 19.1992 20.5938L15.9531 17.3359L12.7188 20.5938C12.5312 20.7812 12.2852 20.875 12.0156 20.875Z" fill="#E81711"/>
</svg>
