<svg width="49" height="49" viewBox="0 0 49 49" fill="none" xmlns="http://www.w3.org/2000/svg">
<path d="M4.54004 16.933V36.6134C4.54004 36.9258 4.78062 37.1493 5.04004 37.1493C5.29946 37.1493 5.54004 36.9258 5.54004 36.6134V16.933C5.54004 14.9583 7.09146 13.3256 9.04004 13.3256H26.04C27.9575 13.3256 29.54 11.712 29.54 9.68231C29.54 8.27936 30.6435 7.11069 32.04 7.11069H35.04C35.2995 7.11069 35.54 6.88723 35.54 6.57488C35.54 6.26252 35.2995 6.03906 35.04 6.03906H32.04C30.1228 6.03906 28.54 7.65449 28.54 9.68231C28.54 11.0877 27.4363 12.2539 26.04 12.2539H9.04004C6.57075 12.2539 4.54004 14.3334 4.54004 16.933Z" fill="#A6A5A8" stroke="#A6A5A8"/>
<path fill-rule="evenodd" clip-rule="evenodd" d="M41.984 5.54113L42.044 5.53906C44.25 5.53906 46.04 7.39317 46.04 9.67817V37.6493C46.04 40.5102 43.802 42.8283 41.04 42.8283H8.04004C7.48804 42.8283 7.04004 42.3643 7.04004 41.7925C7.04004 41.2207 7.48804 40.7567 8.04004 40.7567H41.04C42.696 40.7567 44.04 39.3666 44.04 37.6493V9.67817C44.04 8.5367 43.146 7.61069 42.044 7.61069H42.04L41.986 7.52161C41.756 7.13214 40.916 5.595 41.984 5.54113Z" fill="#A6A5A8"/>
<path fill-rule="evenodd" clip-rule="evenodd" d="M43.7475 6.2725L7.74754 43.5618C7.35554 43.9657 6.72354 43.9657 6.33154 43.5618C5.94154 43.1578 5.94154 42.5011 6.33154 42.0971L42.3315 4.80786C42.7235 4.40389 43.3555 4.40389 43.7475 4.80786C44.1375 5.21182 44.1375 5.86853 43.7475 6.2725Z" fill="#A6A5A8"/>
</svg>
