<svg width="25" height="25" viewBox="0 0 25 25" fill="none" xmlns="http://www.w3.org/2000/svg">
<path fill-rule="evenodd" clip-rule="evenodd" d="M18.1848 4.3544C17.2084 3.37809 15.6261 3.37869 14.6506 4.35574L5.35063 13.6698C4.73105 14.2903 4.36679 15.1209 4.32992 15.9974L4.21177 18.8064C4.16394 19.9434 5.07205 20.8913 6.20915 20.8913L8.9613 20.8914C9.90437 20.8915 10.8075 20.5105 11.466 19.8349L20.6991 10.3616C21.6546 9.38129 21.6446 7.81424 20.6766 6.84625L18.1848 4.3544ZM15.3577 5.06284C15.943 4.47661 16.8924 4.47626 17.4782 5.06204L19.97 7.5539C20.5508 8.13468 20.5569 9.07492 19.9836 9.66312L18.1534 11.5408L13.5179 6.90536L15.3577 5.06284ZM12.8114 7.613L6.05773 14.3769C5.61518 14.8201 5.35499 15.4134 5.32866 16.0395L5.2105 18.8485C5.18659 19.417 5.64064 19.8909 6.2092 19.8909L8.96134 19.8911C9.63497 19.8911 10.2801 19.619 10.7504 19.1364L17.4554 12.257L12.8114 7.613Z" fill="#1D1D1D" fill-opacity="0.5"/>
</svg>
