<svg width="32" height="32" viewBox="0 0 32 32" fill="none" xmlns="http://www.w3.org/2000/svg">
<rect width="32" height="32" rx="8" fill="#CCFF66"/>
<circle cx="16" cy="16" r="11.5" fill="#1D1D1D"/>
<path d="M15.9531 27.9062C22.4922 27.9062 27.9062 22.4805 27.9062 15.9531C27.9062 9.41406 22.4805 4 15.9414 4C9.41406 4 4 9.41406 4 15.9531C4 22.4805 9.42578 27.9062 15.9531 27.9062ZM14.6406 21.6836C14.2422 21.6836 13.9141 21.5195 13.6094 21.1094L10.668 17.5C10.4922 17.2656 10.3867 17.0078 10.3867 16.7383C10.3867 16.2109 10.7969 15.7773 11.3242 15.7773C11.6641 15.7773 11.9219 15.8828 12.2148 16.2695L14.5938 19.3398L19.5977 11.3008C19.8203 10.9492 20.125 10.7617 20.4297 10.7617C20.9453 10.7617 21.4258 11.1133 21.4258 11.6641C21.4258 11.9219 21.2734 12.1914 21.1328 12.4375L15.625 21.1094C15.3789 21.4961 15.0391 21.6836 14.6406 21.6836Z" fill="#CCFF66"/>
</svg>
