<svg width="25" height="26" viewBox="0 0 25 26" fill="none" xmlns="http://www.w3.org/2000/svg">
<path d="M21.4898 14.3826L8.92115 21.9648C7.92013 22.5687 6.64368 21.8461 6.64633 20.677L6.68082 5.45567C6.68347 4.28661 7.96318 3.5698 8.96146 4.17821L21.4956 11.8173C22.4573 12.4034 22.4542 13.8008 21.4898 14.3826Z" stroke="#A6A5A8"/>
<path d="M11.5703 17.1328C9.82031 17.1328 8.60938 16.1406 8.45312 14.7266L8.44531 14.6562H9.04688L9.0625 14.7266C9.21875 15.8281 10.1875 16.6016 11.5625 16.6016C12.9609 16.6016 13.9141 15.9062 13.9141 14.8984V14.8906C13.9141 14.0234 13.4062 13.5781 12.1016 13.2734L10.9688 13.0078C9.42188 12.6484 8.71094 12.0156 8.71094 10.9531V10.9453C8.71094 9.65625 9.86719 8.74219 11.4766 8.74219C13.1406 8.74219 14.2266 9.70312 14.3906 11.1484L14.3984 11.2188H13.8125L13.8047 11.1641C13.6484 10.0234 12.7734 9.27344 11.4766 9.27344C10.2109 9.27344 9.32031 9.96875 9.32031 10.9375V10.9453C9.32031 11.7188 9.84375 12.1719 11.1484 12.4766L12.2812 12.7422C13.875 13.1172 14.5312 13.7344 14.5312 14.8594V14.8672C14.5312 16.2031 13.2969 17.1328 11.5703 17.1328Z" fill="#A6A5A8"/>
</svg>
