<svg width="25" height="25" viewBox="0 0 25 25" fill="none" xmlns="http://www.w3.org/2000/svg">
<path d="M6.01059 9.10722C5.16569 7.98068 5.9695 6.37305 7.37768 6.37305H18.5422C19.9504 6.37305 20.7542 7.98068 19.9093 9.10722V9.10722C19.2931 9.92888 18.96 10.9283 18.96 11.9553V18.373C18.96 20.5822 17.1691 22.373 14.96 22.373H10.96C8.75082 22.373 6.95996 20.5822 6.95996 18.373V11.9553C6.95996 10.9283 6.62684 9.92888 6.01059 9.10722V9.10722Z" stroke="#1D1D1D" stroke-opacity="0.5"/>
<path d="M16.96 6.37305L16.4158 4.74059C16.1436 3.92391 15.3793 3.37305 14.5184 3.37305H11.4015C10.5406 3.37305 9.77634 3.92391 9.50411 4.74059L8.95996 6.37305" stroke="#1D1D1D" stroke-opacity="0.5" stroke-linecap="round"/>
</svg>
