<svg width="24" height="28" viewBox="0 0 24 28" fill="none" xmlns="http://www.w3.org/2000/svg">
<path fill-rule="evenodd" clip-rule="evenodd" d="M16 6C16 8.20914 14.2091 10 12 10C9.79086 10 8 8.20914 8 6C8 3.79086 9.79086 2 12 2C14.2091 2 16 3.79086 16 6ZM18 6C18 9.31371 15.3137 12 12 12C8.68629 12 6 9.31371 6 6C6 2.68629 8.68629 0 12 0C15.3137 0 18 2.68629 18 6ZM2 24C2 19.5817 5.58172 16 10 16H14C18.4183 16 22 19.5817 22 24V26H2V24ZM0 24C0 18.4772 4.47715 14 10 14H14C19.5228 14 24 18.4772 24 24V27C24 27.5523 23.5523 28 23 28H1C0.447716 28 0 27.5523 0 27V24Z" fill="#222222"/>
</svg>
